<svg version="1" xmlns="http://www.w3.org/2000/svg" width="2993.333" height="2993.333" viewBox="0 0 2245.000000 2245.000000"><path d="M1138.7 390.5c-28.9 10-50.4 19.8-65.4 29.8l-8.1 5.5-37.4-.8c-38.2-.9-93.9 0-152.8 2.3-31.2 1.3-31.6 1.3-44.4-1C761 414 682 407.7 625 410c-44.1 1.7-77.4 6.6-129 18.6-96.6 22.6-201.8 47.6-203.3 48.2-1.3.5 19.1 5.7 59.2 15.2 33.6 7.9 60.8 14.7 60.3 15.1-.4.3-6.1 2.1-12.7 3.8-62.1 16.6-157.6 50.3-218.7 77l-13.3 5.8-.3 42.9c-.4 55.6 1.6 98.6 6.3 139.4.6 4.5.5 4.6-9 16-20.1 24-39 50.4-54 75.4-6.5 10.8-65.7 129.4-101.1 202.5L0 1089.3l3.7-2.9c2.1-1.6 43.9-33.5 92.9-71 49-37.4 91.9-69.8 95.2-71.8 6.1-3.7 8.2-3.9 8.2-.9 0 2.6 11.6 48.5 17.5 69.3 60.1 211.6 172.2 412.3 333.4 597 106.3 121.7 238 238.9 360.6 320.7 15.7 10.5 55.8 35.3 57 35.3.2 0 8.2-4.8 17.7-10.6 76.1-46.7 167.5-118.1 253.8-198.4 38.3-35.7 93.3-92.3 130.1-134 71.1-80.7 136.5-169.5 186.4-253 5.5-9.1 10-16.6 10.1-16.8.4-.7 36.3-7.3 54.9-10.1 75.5-11.5 176.6-16.2 228.5-10.7 42.3 4.5 114.5 6.9 144.5 4.7 60.1-4.3 98.9-15.6 134.1-39 29.4-19.5 51.4-44.8 67.4-77.6 8-16.2 10.8-25.5 11.7-37.6l.6-8.7 6.8-7.1c12.8-13.3 21.9-28.7 26.1-43.8 3.1-11.1 3.1-42.3 0-59.3-5.4-29.7-17.4-57.2-35.3-80.9-4.8-6.5-6.9-10.2-7.4-13.3-1.3-7.5-5.6-20-10-28.9-13.8-27.4-37.2-50.9-64.7-65-7-3.5-33.3-13.9-35.3-13.9-.4 0-7.1 3.7-14.7 8.1-17.6 10.3-23.5 12.3-34.3 11.5-4.4-.3-10.8-1.4-14.3-2.5-5.5-1.7-7.5-3.1-15.7-10.9-16-15.3-40.6-30-64-38.2-12.4-4.3-55.6-17.2-56.5-16.8-.5.2-8.4 10.2-17.7 22.3l-16.9 22-8.9.7c-5 .4-17.5 1.2-28 1.8-16.8.9-63.1 6.1-67.7 7.6-1 .3-1.8.2-1.8-.3 0-.4 1.3-10 3-21.3 9.2-63.7 12-107 12-186.1v-54.6l-18.2-9.6c-55.1-29-124-57.7-206.8-86.2l-22.5-7.7-8-9.5c-8.2-9.7-35.9-37.4-47.6-47.5l-6.6-5.8-11.4-1.6c-16-2.2-35.1-1.5-48.1 1.9-12.6 3.3-28.9 10.2-40.7 17.3-9.3 5.5-9.4 5.6-13.8 4.5-2.5-.7-8.9-1.8-14.4-2.6-7.9-1.1-12.5-2.5-22.9-6.9-23-9.9-49.2-16.6-72.3-18.7-16.4-1.5-15.2-1.1-24.2-7.8-5.9-4.5-11.8-10.7-23.2-24.3-8.4-10.1-15.6-18.4-16-18.4-.5-.1-12.9 4-27.6 9.1zm31.6 27.7c12.8 15.1 17.2 19.2 28.6 26.7 8.7 5.7 9.1 5.9 17.8 6.5 29.5 2.3 55.3 8.7 79.8 19.8 9.2 4.2 12.8 5.2 22 6.5 6.1.8 15 2.5 20 3.8l8.9 2.3 10.1-6.2c31.3-19.7 53.7-25 83.7-20 3.2.5 6.7 3.4 23 19.2 10.5 10.3 23.7 24.1 29.3 30.6l10.2 11.9 31.4 10.7c70.9 24.1 139.3 52.1 187.4 76.8l19 9.8.6 28.9c1.6 75.1-3.6 148.6-15.6 220.5-1.9 11.3-3.7 21.9-4 23.6l-.7 3.1 12.8-2.4c38.8-7.1 88.9-12.2 120.3-12.3 6.9 0 9.7-.4 10.5-1.4.6-.8 7.6-9.9 15.5-20.3 7.9-10.3 14.7-19.1 15.1-19.6.8-.9 35 9.1 47.3 13.9 24 9.5 40.6 20.1 56.3 36.2l8.1 8.3 10.9 3c9.1 2.6 12.9 3.1 22.9 3.2 14.9.2 20.9-1.5 37.4-11l11.4-6.5 12.3 4.7c29.4 11.3 54.5 34.5 68 62.9 4 8.4 8.4 23.2 8.4 28.2 0 1.1 2.3 5 5.2 8.5 13.7 17 25.1 38.2 31.2 57.9 5.8 18.8 7 27.2 7.1 48 0 17.8-.1 18.8-2.8 26.5-4.3 12.2-10.7 21.6-22.5 33.3l-10.4 10.3.6 4.4c.8 5-.8 18.7-3 25.4-2.8 8.7-15.4 32.6-21.9 41.6-35.2 48.9-85.7 73.3-164.4 79.5-31.3 2.4-93.4.6-143.1-4.1-70.6-6.7-180.5-.3-266.6 15.5-10.4 1.9-22.5 4.3-26.9 5.3l-8 1.9-7.8 12.9c-19.1 31.6-26.2 42.7-44.2 70-63.8 96.3-134.6 182.9-221 270.4-83.6 84.6-172.3 159.7-259.9 220.1-21 14.5-50.3 33-52.2 33-3.3 0-47.5-28.6-79.2-51.3-135.3-96.6-266-220.5-371.1-351.7-156.7-195.6-258-404.3-303.6-625.7l-.7-3.3-12.6 6.5c-19.3 9.8-29.2 16.7-87.5 61.4-29.7 22.7-54.1 41.1-54.3 40.8-.7-.7 62.1-126.8 68.8-138.2 16.5-27.7 35.5-53.3 64.9-88l2.7-3.1-2.3-22.4c-4.2-40.1-4.7-49.7-5.2-103.8l-.5-53.2 6.8-3.1c11.4-5.2 62.7-25.3 86.6-34 28.5-10.3 63.8-22.1 89.3-29.8 17.7-5.3 97.2-27.2 114.5-31.6 3.6-.9 8.3-2.1 10.5-2.7l4-1.1-9-2.3c-4.9-1.3-31.4-7.6-58.8-14.1-31.8-7.5-49.2-12-48-12.5 3.4-1.4 137.8-32.7 153.3-35.7 38.8-7.6 70.4-10.5 113-10.5 55.7 0 107.9 4.7 170 15.3l21.5 3.6 42.5-1.6c66.6-2.6 112.8-3.2 152.2-2l35.7 1.1 8.2-5.9c8.7-6.2 19.5-12.3 31.9-18 7.5-3.5 44.4-16.9 46.7-17 .6-.1 5.9 5.4 11.6 12.1z"/><path d="M1138.5 446.4c-27.4 9.9-51.8 26.4-69.6 46.9-7.7 8.9-18.7 24.7-23.8 34.5l-3.3 6-4.1-1.2c-2.3-.8-10.9-3.5-19.2-6.1-126.9-39.9-248.9-61.9-355.5-64.2-47.4-1-93.7 3.5-136.9 13.3l-7.4 1.7 11.9 3.3c27.6 7.6 66.6 23.5 77.9 31.8 1.7 1.2 9.8 6.4 18 11.6 17.2 10.7 22.2 14.2 34.3 24.5 9.5 8 23.9 22.2 23.1 22.8-.2.3-3.8-.1-7.9-.8-32.7-5.6-88.9-8.5-130.5-6.6-81 3.7-151.1 17.2-220 42.4l-14 5.2 4.5.7c2.5.3 8.8.7 14 .7 46 .4 106.5 12.4 151 29.8 10 4 25 10.9 25 11.6 0 .1-6.9.1-15.2-.1-45.1-1-85.5 10.4-128.3 36.3-68.5 41.3-129.3 96-176.5 159-14.2 19-30.8 44.3-37.1 56.6-2.2 4.5-2 4.4 5.1-.6 27.9-19.9 79.4-42.3 131.7-57.5 14.1-4 39.5-10.2 40-9.7.1.2-2.6 2.2-6 4.4-16.6 11-45.3 37.2-65.2 59.5l-7.7 8.8 4.7 21.2c34.7 155.2 102.4 311.4 198.3 457.3 66.3 100.8 141.6 192.2 233.4 283 69.9 69.2 138.3 127.7 213.8 182.8 23.4 17 68.9 47.7 70.9 47.7 3.3 0 45.6-29 80.9-55.4 112.1-83.9 222.7-188.8 313.3-297.1 40.8-48.8 81.4-103.3 115.5-155.1 19.4-29.3 41.7-65.8 40.5-66.2-.5-.2-8 1.7-16.5 4.3-47.8 14-94 33.3-131.6 54.8-13 7.5-6.9 1.1-71.4 74.7-41.6 47.5-59 66.4-91.1 98.9-32 32.4-68.9 67.5-69.4 66-.5-1.7 22.8-47.7 33.5-65.9 23-39.3 36.2-56.6 76-99 18.7-20 35.7-36.1 52.3-49.4 81.7-65.5 197.3-108.9 339.1-127.1 40.6-5.2 75.3-7.8 125.2-9.6 37.5-1.3 58.7-.8 89.3 2 41.5 3.9 56.7 4.6 101.5 4.6 48 0 56.2-.6 84-6.1 32.8-6.6 58.9-19.6 79.9-39.9 12-11.6 20.5-23 28-37.5 9.8-18.9 11-28.1 5.9-42.9l-2.3-6.4 2.5-1.6c6.4-4.1 22-17.3 26.7-22.4 2.8-3.1 6.4-8.3 8-11.5 2.5-5.2 2.8-6.9 3.1-18.2.9-34.1-10.3-63.9-35.1-93.7-6.6-7.9-7.7-9.8-7.7-13 0-17.2-10-37.4-25.8-52.5-6.5-6.2-22.6-17.2-26.7-18.2-1.9-.5-3.9 0-6.9 1.8-13.6 7.9-29.4 11.9-47.1 11.7-13.7-.1-16.4-.5-39.1-6.6l-14.1-3.8-5.2-6.8c-9.5-12.5-22.6-22.4-40.5-31-9.8-4.7-29.8-11.9-32.9-11.9-.9 0-5.9 5.7-11.2 12.6-5.4 6.9-11.9 15.1-14.5 18.3l-4.8 5.8-29.4.6c-16.1.4-34 1.1-39.8 1.7-36 3.6-73 9.5-107 17l-22.5 5-4.5-3.2c-29.7-20.9-62.4-52.4-90.7-87.5-5.3-6.5-18.7-24-29.9-39-22.4-30-35.4-45.8-49.3-60.5l-9.2-9.7 6.4-9.3c11-15.9 19-32.3 21.8-44.6 4.7-20.9 2.2-49.8-6.2-70.9-5-12.6-19.4-40.4-26.6-51.3-13.9-20.8-32.7-42.9-52-60.7l-10.6-9.8-8.6.1c-4.7.1-11.5.9-15.1 1.8-13.1 3.5-33.4 14.7-47.3 26l-5.8 4.7-7.4-3c-9.7-4.1-21.6-6.8-35-8.2-10.4-1-11.7-1.4-23-6.9-23.9-11.5-46.9-17.3-75-18.7-12.9-.6-13-.7-19.5-4.6-15.4-9.4-25.1-16.7-34.2-25.9-5.4-5.4-10.1-9.8-10.5-9.8-.4.1-4.9 1.6-9.8 3.4zm10.5 26.9c2.5 2.8 14.2 12.9 26 22.6 46.7 38.2 69.4 60.1 90.9 87.6 19 24.3 35.1 53.2 43 77 5 15 9.3 35.7 7.7 36.7-1.9 1.3-16.8.8-24.1-.7-10.5-2.2-19-6.8-26.6-14.4-5.7-5.7-7.5-8.5-13.3-20.6-25.2-52.4-66.7-102.1-124.9-149.9-5.9-4.9-11-8.6-11.2-8.4-.2.2 4.9 5.7 11.5 12.3l11.9 11.9-4.9 4.8c-19.3 19-30.7 46.7-29.9 73.2.1 5.4-.2 7-1.1 6.8-4.7-1.1-21.7-1.8-28-1.1-4.1.4-8.1.8-8.7.8-.7.1-1.3.5-1.3 1 0 .4 3.3 1.1 7.3 1.4 26.2 2.2 56 17.3 85 43.1 5.3 4.8 21.3 20 35.5 33.9 33.4 32.7 40.8 38.6 65.1 52.6 13.8 7.9 31.2 15.5 41.6 18.3 22.8 6.1 45.9 4.3 69.3-5.4 4.3-1.7 7.8-3.2 7.9-3.3.5-.3-1.8-27.3-3.3-39-4.5-35.6-15.5-73.7-29.1-100.9-9.8-19.5-24.3-40.2-39-55.7-4.7-4.9-8.1-8.9-7.5-8.9 2.7 0 17.9 7.3 25.7 12.4 8.3 5.5 20.7 16.8 26.9 24.6l2.7 3.5-.5-5.4c-.3-2.9-2-9.8-3.7-15.2-2.6-8.2-2.9-10.2-1.9-11.4.9-1.1 2.2-1.4 4.4-.9 10 2.2 23.3 17.6 32.8 38.2 4.3 9.3 12.8 34.1 12.8 37.5 0 1.1.2 1.8.6 1.5.8-.8-1.4-16.6-4.3-30.3-2.9-14.1-8-30.5-13.4-42.9-2.2-4.9-3.9-9.2-3.9-9.6 0-1.2 13-10.1 21.3-14.5 8.2-4.4 21.2-8.5 26.8-8.5 2.5 0 3.6 1.3 10.4 12.2 18.4 29.6 31.7 63.3 35.4 90.1 1.6 11.4 1.4 33.9-.4 44.3-1.9 10.9-6.2 23.9-11 33.5-3.4 6.7-3.8 7-6.3 6.4-13.8-3.6-33-4.5-44.2-2.1-7.8 1.7-16.9 5-19.6 7.1-1.8 1.5-1.7 1.6 1.6.9 1.9-.4 9.1-.7 16-.7 34.9.1 58.8 14.8 82.2 50.4 8.5 12.9 17.4 29.7 32.8 61.8 27.6 57.6 46.9 89.5 68.9 114.5 2.9 3.2 5 6 4.8 6.2-.2.2-6.2 2.6-13.3 5.3-39.4 14.9-78.1 24.7-114.9 29.2-10.7 1.3-45.4 1.8-52 .7-3.1-.5-2.7-.2 2 1.3 10.1 3.3 22.2 5 40 5.6 35.7 1.2 74.1-3.7 183-23.2 85.1-15.3 125.3-20.3 171.5-21.2 29.1-.6 46 .3 64.9 3.3 5.2.8 9.6 1.3 9.8 1 .5-.5-2.4-18.8-4.1-25.2l-1.3-5.1 5.3-4.2c3-2.3 10.6-9.2 16.8-15.2l11.5-11 6.3 2.7c20.5 8.6 36.5 18.9 48 31.2 7.3 7.8 8.5 10.5 9.4 21.7 1.2 14.1-4.2 27.8-15.7 39.7-7 7.2-6.5 7.8 2.5 2.9 10.4-5.5 20.3-16.8 24.1-27.6 1-2.8 2.3-5.5 2.9-6.2.7-.7 7.6-1.6 18.2-2.3 23.7-1.6 55.7.5 82.2 5.5 1.5.3-3.6-2.6-11.3-6.4-11.1-5.5-13.6-7.1-12-7.7 5.8-2.1 14.8-6.5 19.9-9.8l5.8-3.7 4.2 2.5c8.2 4.8 19.4 19.1 23.5 30.1 2.2 5.8 4.6 18.2 5.6 28.6.6 6.4.5 6.8-2.3 10-1.6 1.9-6.6 5.3-11.1 7.7-4.4 2.4-8.1 4.7-8.1 5.2 0 1 3.7 2 8.2 2 3.3 0 4.5.9 12.8 9.7 10.7 11.5 20.6 25.8 25.5 37 4 9.3 8.5 25.3 8.5 30.3 0 8-10.3 23.9-21 32.6l-7 5.6-8.2-3.5c-19.8-8.5-34.3-11.2-59.3-11.1-26 .1-42.1 2.1-126.5 15.8-38.8 6.3-50.3 7.6-65.5 7.6-22.7 0-34.4-2.7-80-18.4-24.4-8.4-35.7-11.3-48.8-12.2-4.8-.4-9.4-1.2-10.2-1.8-1.6-1.3-5-13.8-6.5-24.1-1.5-10.5-1.2-32 .5-42.1 2.2-12.6 5.8-23.4 12.5-37.3 4-8.2 5.5-12.1 4.5-12.1-3.3 0-18.8 5.6-27.7 10-42.3 20.8-75.3 61.2-94.3 115.5l-4.3 12-12.3 2.7c-39.9 8.8-63.2 11.8-96.9 12.5-75.8 1.5-125.2-9.5-168.1-37.6-33.6-21.9-53.9-43.3-108.6-114.6-43.5-56.7-73.9-89.4-114.3-123.2-108.2-90.6-231.7-131.9-354.9-118.8-14.5 1.6-40.3 5.7-47.5 7.6-2.1.6-3.9.9-4.1.7-.6-.5 28.5-26.4 37-32.9 20.8-15.9 57.7-34.5 82-41.2 19.3-5.4 29.8-6.9 52-7.4 48.5-1.1 79.3 8.5 130 40.5 37.9 23.9 71.3 50.2 144.5 113.7 81.5 70.7 116.3 96.8 155.4 116.9 11.5 5.9 33.4 15.1 34.1 14.4.2-.2-1.3-1.5-3.3-2.8-46-30.8-80.6-62.7-138.1-127.5-11.3-12.7-21-23.7-21.8-24.6-1.2-1.4-.3-1.8 9.3-3.3 16.6-2.5 32.7-6.3 47.1-11.1 11.4-3.8 28.3-10.8 28.3-11.7 0-.2-5.7-.1-12.7 0-41.1 1.2-95.4-12.5-122.1-30.7-6.8-4.6-24.9-21.7-21.7-20.5 24.6 9.3 55.4 14.8 88.5 16l15.5.5-30-15.4c-50.7-25.9-93.6-52.1-115.7-70.3-10.8-9-20.2-24-24-38.3-5-18.9-.6-47 11.9-76.6l3.8-9 .7 6.5c.9 8.7 3.4 18.7 6.3 25.7 1.3 3.2 2.4 5.4 2.5 4.9 0-.5.7-5.6 1.6-11.5 7.3-50 30.1-86.5 62.3-99.8 5.2-2.1 5.7-2.1 6.6-.6.6.9 3 3.9 5.5 6.6zm-302 64.1c53.8 5 109.5 14.4 164.4 27.7l16.8 4.1-.6 2.7c-.3 1.4-1.7 7.8-3.1 14.1-1.4 6.3-2.8 12.6-3.1 13.9-.4 1.8-.9 2.2-2.7 1.7-3.7-1.1-21.2-1.9-25.1-1.2-2.4.5-4.7 1.9-6.4 3.9-5.1 6-19.7 20.9-24.3 24.8l-4.6 3.9-12-4.5c-14.5-5.3-38.5-12.3-54.7-16-11.2-2.5-12.4-2.6-22.8-1.5-70.2 7-138.8 39.7-212.8 101.3-16.7 14-65.1 61.8-79.4 78.7-14.5 17-42.8 52.4-55.1 69-17.6 23.9-45.4 66.1-52 78.9-8.8 17.5-8.7 45.1.3 61.5 1.5 2.8 7.8 13.6 13.9 24.1 55.6 95.6 119.8 218.3 142.7 272.5 30.9 73.3 40.6 91.2 59.1 109.5 9.8 9.8 17.6 14.8 30 19.6 14.4 5.6 24.7 7.3 46 7.3 21.3.1 26.1-.6 87.5-12.4 81-15.5 154.9-29 159.4-29 1.1 0-1.4 2.3-6 5.6-19.6 14.1-61.4 50.9-59.6 52.5.9.9 31.6 9.5 50.7 14.3 42 10.4 94.5 19.9 148.5 26.6l22.5 2.8-18 .1c-66.4.4-151.3-7.4-212-19.5l-13-2.6-30.3 30.7c-34.7 35.2-53.3 54.9-71 75.5-6.9 8-13.3 15.3-14.2 16.4-1.7 1.7-2.1 1.6-12.6-5.5-104.8-70.1-194.7-156.7-270.4-260.4-13.5-18.6-40.3-58.9-52.8-79.6-18-29.9-46.3-82.3-40.5-74.9 1.6 1.9 6.4 8 10.8 13.5 14.3 17.9 52.4 55.6 86 85 15.8 13.9 49.4 41.8 68.5 56.9 9.6 7.7 18.4 14.6 19.5 15.5 1.1.9-9.7-10.6-24-25.4-31.6-32.8-47.6-50.1-69.5-75-98.2-111.9-168.6-220.1-203.5-312.6l-5.3-14.3 4.6-5.9c23.3-29.8 62.3-67.1 88.4-84.6l5.9-4-6.8-3.9c-9.8-5.7-16-8.7-28.1-13.6-14.6-6-23.4-8.5-38.6-11l-12.9-2.2 12.9-13.3c7.1-7.3 17.1-16.9 22.4-21.3 36.1-30.2 81.3-51.1 132-61.2 25.6-5.1 36.5-6 68.3-6.1 16.3 0 29.7-.4 29.7-.9 0-.4-2.7-6.5-6-13.4-11-23-25-41-40.8-52.7l-8.2-6 10.9-2.2c26-5.2 56.2-9 90.1-11.4 19-1.3 75.6-1.6 90.9-.4l10.4.7-.7-2.8c-3.2-12.5-19.1-49.7-24.7-57.5-1.6-2.4-1.9-3.3-.9-3.9 1.3-.8 19.7-2.8 37.5-4.1 17.8-1.2 78.9-.3 98.5 1.5zm316.1 15.3c8.8 10.3 20.7 25.6 21.6 27.9.2.6-2.1 3.7-5.1 6.8-10.9 11.1-16.1 27.5-13.8 43.3.6 4.3 1.5 8.8 1.8 10.1.6 2-1.3 1-11.5-5.7-6.7-4.4-16.1-9.9-20.9-12.2-4.8-2.3-9-4.6-9.4-5.2-.3-.6-1-4.7-1.3-9.2-1.8-20.7 6.4-43.3 21.5-59.8 3.4-3.7 6.6-6.7 7.1-6.7.4 0 5 4.8 10 10.7zm45.2 69c6.2 13.4 9.6 23 16.2 45.3 3.5 11.8 7.7 25.3 9.4 30 1.6 4.7 2.8 8.6 2.6 8.9-.2.2-10.2-9.2-22.2-20.9s-26.9-25.6-33-30.8c-6.2-5.3-11.3-10.1-11.3-10.6 0-.6 1.3-3.4 3-6.2 3.3-5.9 10.6-13.5 16.2-17 3.9-2.5 12.4-6.2 14.4-6.3.6-.1 2.7 3.4 4.7 7.6zM819.1 778.5c23.5 2.3 49.1 6.8 68.9 12.1 94.7 25.6 175.8 80 241.9 162.4 13.4 16.7 26.6 34.9 25.9 35.6-.3.2-12.4-6.7-26.9-15.4-35.9-21.6-60.2-35.2-86.9-48.7-38.2-19.2-61.9-29.3-94.5-40-42.2-14-80.3-21.3-121.9-23.5-32.9-1.8-52.9 1.3-73.5 11.1-12.7 6-21.4 12.4-31.5 22.9-11.2 11.8-20 26.2-25.9 42.5-2.8 7.9-6.2 22.3-5.4 23.1.3.3 2.3-2.6 4.6-6.4 9.3-15.9 22.3-31.2 35.5-41.8 8.9-7.1 24.7-15.4 34.1-17.9 6.9-1.8 24.6-3.1 29.8-2.1l3.5.6-5 12.3c-10.7 26.5-18.5 55.5-19.5 72.2-1.2 19.1 2.2 41.6 11.7 78 13.2 51 31.9 87.3 54.8 106.8 6.5 5.5 20.9 12.9 29.7 15.3 3.6 1 11.8 1.8 20.5 2.1 21.2.7 34.6-1.6 83-14.3 36.1-9.5 72.4-16.4 85.8-16.4h3.6l-4.6 4.7c-13.2 13.7-36.1 43.7-49.7 65.1-12 18.7-31.1 53.1-31.1 55.7 0 .3 3.6-4 8.1-9.6s13.4-15.6 19.8-22.2c64.4-66.4 152.9-109.3 248.1-120.1 16-1.8 46.2-3.6 61-3.6h10.5l8.5 6.1c28.3 20.3 63.9 35.3 97.4 41l6.9 1.2-.6 14.1c-.9 21.2-4.8 39.8-12.6 59-3.1 7.8-3.5 9.3-1.9 8.5 8.6-4.6 35.5-20.6 44.8-26.7 18.2-11.8 37.6-26.8 49.5-38.3l11-10.6 16-1.1c26.8-2 43.9-5 127.5-22.3l44.5-9.3h17.5c16.1-.1 18.4.1 28.5 2.8 6.1 1.5 20.5 6.2 32 10.3 28.6 10.1 38.4 12.9 54.6 15.5l13.7 2.2.7 3.1c2.6 12.8.9 33.3-4.4 53-1.7 6-2.9 11-2.8 11.2.6.5 27.8-15.3 35.8-20.8 19.8-13.6 38-31 48.4-46.3 3.2-4.7 6.6-8.8 7.4-9 3.7-1.1 65-11.8 80.6-14.1 33.1-4.7 49.3-5.5 65.8-3 9.8 1.5 29.2 7.3 33.4 10 3.3 2.2 7.5 11.7 7.6 17.2 0 9.6-13.9 33.6-27.4 47.3-30 30.3-63.7 40.5-132.4 40.4-27.6-.1-56.3-1.6-91.5-4.9-37.8-3.5-50.6-3.8-99.8-2.6-66.1 1.6-114.7 4.3-179.2 9.7-179.7 15-394.3 48.8-594.3 93.5-44.2 9.9-65.3 15.2-100.2 25.4-72.1 21-108.7 28.5-140 28.8-15.6.2-22.1-1.1-33.5-6.4-12.2-5.7-22.1-15.3-28.3-27.5-1.4-2.8-8.6-24.8-16.1-49-36-117-61.5-191.8-90.6-265.8-5.6-14.2-10.8-29-11.7-33-2.7-12.8-.2-23.3 11.2-48.6 22.5-49.8 53-87.1 82.5-100.9 9.8-4.5 16.7-6.4 29.7-8.2 8.8-1.1 9.2-1.3 8.2-3.2-2.1-3.9-17.5-19.1-25-24.7-19.3-14.4-46.9-24-69.1-24-3.7 0-6.8-.4-6.8-.9s3.7-3.3 8.3-6.2c25.3-16.3 70.6-29.5 115.7-33.7 15.9-1.5 59.1-1.4 76.1.3zM865.6 888c39.3 8.1 85.2 23.9 132.9 45.7 27.5 12.6 80.6 40.8 140.5 74.6 6.9 3.9 25.1 13.5 40.5 21.3 15.4 7.8 35.4 18 44.5 22.7 18.2 9.4 32.4 15 44.1 17.6l7.6 1.6 11.6 13.1 11.5 13.1-12.1 1.2c-50 4.9-97.3 17-138.8 35.6l-11.6 5.2-10.9-2.8c-30.6-7.6-63-10.5-90.9-7.9-20.5 1.9-35.5 5-79.5 16.3-33.9 8.7-46.4 11-62 11-19.4.1-30.3-3.7-41.3-14.2-18.3-17.4-33.9-55.3-44.6-108.1-3.6-17.6-7.2-41.7-7.3-48.5-.4-15.5 15.8-50.7 34.7-76C842.4 899 853.7 886 855 886c.4 0 5.2.9 10.6 2zm852 140.2c-6.1 21.6-6.5 50.1-1.2 73.9 1.3 5.7 2.3 10.5 2.1 10.7-.1.1-4.4.9-9.5 1.8-5.1.8-14.4 2.6-20.7 3.9-6.3 1.4-11.8 2.5-12.2 2.5-1.3 0 .9-19 3.5-30.8 5.8-26.3 16.7-46.3 32.7-60.1 5.5-4.7 6.2-4.9 5.3-1.9zm202.6 142.5c-6.5 8.1-30.7 30.1-31.9 28.9-.2-.1.4-2.3 1.2-4.7.9-2.4 2.7-8.8 4-14.3 1.4-5.4 2.6-10 2.7-10.1.5-.4 26.3-4.2 26.7-3.9.2.2-1 2-2.7 4.1zm-428.7 1.9l12.9.7-5.3 4.8c-9 8.4-39.3 30.9-41.5 30.9-.3 0 .7-3.5 2.3-7.8 2.4-6.5 5.5-17.6 7.7-28.1.5-2.2.8-2.3 5.7-1.7 2.9.3 11 .9 18.2 1.2z"/><path d="M1926.3 924.9c2.6 2.8 4.7 5.3 4.7 5.6 0 .3-1 2-2.2 3.6-2 2.6-2.3 4.3-2.2 11.3.2 18.3 8.5 31.7 16.1 26 5.3-4 6.8-7 6.7-13.9 0-5.2-.7-7.7-3.7-13.7-6.2-12.6-12.8-19.6-21.3-22.8-2.5-1-2.2-.5 1.9 3.9zM942 938.6c-8 4.2-18.1 10-22.5 12.9-27.2 18-53 49.8-70.5 87-5.6 11.8-13 30.4-13 32.7 0 .7 3.9-5.3 8.6-13.2 20.7-34.7 44-62.2 67.5-79.7 4-2.9 7.5-5.3 8-5.3.4 0 .3 1.7-.2 3.7-.5 2.1-1.3 9.7-1.9 17-2.6 34 5.8 82.4 22.8 129.6l3.9 10.9 9.9-15.4c19.3-29.8 45.1-64.5 60.2-80.8l6-6.5.7 5c1.6 12.6 4.8 27.1 8.1 37.5 3.4 10.9 12.7 33.6 14.3 35.3.4.4 5-5.7 10.3-13.5 15.5-23.1 31.1-42.1 43.5-53.1 3-2.6 5.1-4.7 4.6-4.7-1.8 0-16.4 10.1-25 17.3-5 4.3-13.7 12.5-19.2 18.4-5.6 5.8-10.3 10.4-10.5 10.2-.8-.9-4.6-19-6-29-2-13.4-2-34-.1-49.4.8-6.5 1.3-12.1 1-12.3-.7-.7-20.4 10.6-26.5 15.1-13.6 10.2-35.4 33.7-53.8 58-5.3 7-10 12.3-10.4 11.9-1.4-1.4-7.5-30.5-9.7-45.7-3.9-27-3.7-47.7.5-64 .9-3.3 4.7-12.9 8.5-21.3s6.9-15.4 6.9-15.7c0-1.1-2.1-.2-16 7.1zM933 477.9c-19.9.7-20.2.3 5 6.6 20.1 5 46.6 12.4 71.8 20.1 11.6 3.5 21.8 6.4 22.5 6.3.6 0 3.6-3.8 6.6-8.3 2.9-4.6 8.2-11.8 11.8-16.1 3.5-4.2 6.2-7.9 6-8.2-.8-.7-104.1-1.1-123.7-.4zM553 525.6c-42.3 9.5-128.8 31.9-127.7 33 .2.2 5-.5 10.7-1.6 19.1-3.4 46.2-7.1 62-8.5 3.6-.3 7.9-.8 9.5-1 9.1-1.3 35-2 74.2-2 24.3 0 43.9-.3 43.5-.6-2.2-1.8-31.6-19.7-36.4-22.1-3.1-1.5-7-2.8-8.5-2.7-1.5 0-13.8 2.5-27.3 5.5zM1516.1 561.2c6.6 11.3 19 37.8 22.3 47.8 3.3 10.4 5.9 21.6 7.1 31.7l.7 5.2 7.1 2.7c15.7 5.9 43.2 17 62.6 25.2l20.4 8.6-.7 18.1c-1.5 42.1-8.1 105.7-15.1 145.4l-1.5 8.4 6 6.7c16.3 18.4 57.8 54.7 60 52.4 1.9-2.1 12.2-61.1 16.4-94.4 6.1-47.3 8.5-84 9.3-140l.6-42.5-19.9-9.7c-33.8-16.4-75.6-33.9-120.4-50.6-18.8-7-56.5-20.2-57.6-20.2-.3 0 1 2.4 2.7 5.2zM279.5 632.1c-8.2.5-23.7 1.5-34.2 2.4-10.6.8-20.7 1.5-22.4 1.5h-3.2l.6 40.7c.5 35.6 2.6 74.5 4.1 76.1.3.2 4.2-2.7 8.8-6.5 30-25.1 67.8-50.6 100.8-68.1 22.8-12.1 55.8-25.4 78.5-31.8l10-2.8-6-1.3c-45-9.5-89.2-12.8-137-10.2z"/></svg>